<?xml version="1.0" standalone="no"?><!DOCTYPE svg PUBLIC "-//W3C//DTD SVG 1.1//EN" "http://www.w3.org/Graphics/SVG/1.1/DTD/svg11.dtd"><svg class="icon" width="200px" height="200.00px" viewBox="0 0 1024 1024" version="1.1" xmlns="http://www.w3.org/2000/svg"><path fill="" d="M525.7984 278.6048c2.449067-12.228267 0.520533-21.205333-5.896533-27.016533-6.4-5.8112-19.447467-9.915733-38.980267-12.3648-8.567467-1.834667-12.8256-6.715733-12.8256-14.651734 0-1.8176 0.298667-3.797333 0.9728-5.9648 0.597333-2.1248 1.2032-4.727467 1.800533-7.7824 18.321067 1.826133 36.292267 3.2 54.033067 4.130134 17.732267 0.887467 34.2016 1.373867 49.467733 1.373866 12.834133 0 28.416-0.4864 46.6688-1.373866 18.3296-0.930133 35.780267-2.312533 52.2496-4.130134 1.186133 6.109867 1.783467 10.692267 1.783467 13.7472 0 8.533333-4.232533 13.124267-12.817067 13.713067-19.5328 2.4576-33.237333 6.749867-41.216 12.817067-7.918933 6.109867-13.115733 15.274667-15.5648 27.502933L514.8416 749.320533c-2.466133 12.228267-0.298667 21.051733 6.408533 26.564267 6.698667 5.486933 20.4032 9.770667 41.216 12.817067 7.901867 1.834667 11.904 6.417067 11.904 13.713066 0 3.694933-0.648533 8.567467-1.851733 14.651734a1071.829333 1071.829333 0 0 0-55.816533-4.096 1053.952 1053.952 0 0 0-51.345067-1.373867c-12.817067 0-28.253867 0.443733-46.216533 1.373867-18.030933 0.887467-35.2512 2.2784-51.720534 4.096-1.262933-6.084267-1.8688-10.9568-1.8688-14.651734 0-7.296 3.669333-11.579733 10.965334-12.817066 19.601067-3.054933 33.6128-7.4496 42.171733-13.269334 8.490667-5.819733 14.011733-14.788267 16.4608-27.016533l90.6496-470.7072z" /></svg>