<?xml version="1.0" standalone="no"?><!DOCTYPE svg PUBLIC "-//W3C//DTD SVG 1.1//EN" "http://www.w3.org/Graphics/SVG/1.1/DTD/svg11.dtd"><svg t="1622346129103" class="icon" viewBox="0 0 1024 1024" version="1.1" xmlns="http://www.w3.org/2000/svg" p-id="2476" xmlns:xlink="http://www.w3.org/1999/xlink" width="200" height="200"><defs><style type="text/css"></style></defs><path d="M505.181 742.018c-26.499 0-47.972 21.481-47.972 47.968s21.474 47.977 47.972 47.977c26.48 0 47.948-21.488 47.948-47.977s-21.469-47.968-47.948-47.968z" p-id="2477"></path><path d="M505.181 70.128c-246.883 0-447.689 200.826-447.689 447.683 0 246.874 200.806 447.705 447.689 447.705 246.849 0 447.683-200.83 447.683-447.705 0-246.858-200.836-447.683-447.683-447.683zM505.181 901.273c-211.46 0-383.455-172.045-383.455-383.459 0-211.431 171.995-383.436 383.455-383.436 211.391 0 383.455 172.003 383.455 383.436 0 211.417-172.064 383.459-383.455 383.459z" p-id="2478"></path><path d="M505.162 231.205c-88.146 0-159.892 71.093-159.892 158.448 0 17.648 14.347 31.981 31.981 31.981 17.675 0 31.985-14.332 31.985-31.981 0-52.987 42.167-94.498 95.946-94.498 52.873 0 95.926 43.366 95.926 96.677 0 21.324-26.753 48.058-52.634 73.965-35.309 35.267-75.282 75.237-75.282 127.563v54.067c0 17.663 14.341 31.985 31.989 31.985 17.634 0 31.97-14.363 31.97-32.016v-54.071c0-25.807 28.719-54.524 56.54-82.282 35.074-35.074 71.383-71.346 71.383-119.221-0.002-88.573-71.718-160.617-159.914-160.617z" p-id="2479"></path></svg>