<?xml version="1.0" standalone="no"?><!DOCTYPE svg PUBLIC "-//W3C//DTD SVG 1.1//EN" "http://www.w3.org/Graphics/SVG/1.1/DTD/svg11.dtd"><svg t="1619442721332" class="icon" viewBox="0 0 1028 1024" version="1.1" xmlns="http://www.w3.org/2000/svg" p-id="3281" xmlns:xlink="http://www.w3.org/1999/xlink" width="200.78125" height="200"><defs><style type="text/css"></style></defs><path d="M989.785493 398.961737c-10.999125 0-19.915127-8.916003-19.915128-19.915127v-59.745382c0-10.999125 8.916003-19.915127 19.915128-19.915127s19.915127 8.916003 19.915127 19.915127v59.745382c0 10.999125-8.916003 19.915127-19.915127 19.915127z m0-219.0664c-10.999125 0-19.915127-8.916003-19.915128-19.915128v-59.745382c0-10.999125 8.916003-19.915127 19.915128-19.915127s19.915127 8.916003 19.915127 19.915127v59.745382c0 10.999125-8.916003 19.915127-19.915127 19.915128zM880.168649 66.272565h-59.745382c-10.999125 0-19.915127-8.916003-19.915128-19.915127s8.916003-19.915127 19.915128-19.915128h59.745382c10.999125 0 19.915127 8.916003 19.915127 19.915128s-8.916003 19.915127-19.915127 19.915127z m-219.066401 0h-59.745382c-10.999125 0-19.915127-8.916003-19.915127-19.915127s8.916003-19.915127 19.915127-19.915128h59.745382c10.999125 0 19.915127 8.916003 19.915127 19.915128s-8.916003 19.915127-19.915127 19.915127z" fill="#DCDDDD" p-id="3282"></path><path d="M996.761762 1013.69193l-0.261884-0.001991c-10.997133-0.141397-19.798624-9.171912-19.657227-20.170041 0.031864-2.484412 3.130658-249.441949-2.941464-337.488718C950.709026 319.750314 715.292305 88.546639 374.149162 67.01042c-66.238709-4.179189-351.202275-1.975581-354.072045-1.952678l-0.161313 0.000996c-10.925439 0-19.824513-8.812444-19.911144-19.757798-0.086631-10.998129 8.757677-19.98483 19.756802-20.071461 11.779798-0.093601 289.258263-2.23846 356.897006 2.030347 185.097168 11.684205 343.17847 81.177046 457.153739 200.966537 53.04195 55.746424 95.487061 121.18355 126.156357 194.493125 30.006122 71.72234 48.063168 149.298731 53.668281 230.57137 6.183647 89.667861 3.164514 330.532364 3.033074 340.741854-0.140402 10.910503-9.030514 19.658222-19.908157 19.659218z" fill="#F39835" p-id="3283"></path><path d="M997.751544 1023.411508c-10.999125 0-19.915127-8.916003-19.915128-19.915127V685.996476c0-10.999125 8.916003-19.915127 19.915128-19.915127s19.915127 8.916003 19.915127 19.915127v317.5009c0 10.998129-8.916003 19.914132-19.915127 19.914132zM359.363175 65.058738H19.918792c-10.999125 0-19.915127-8.916003-19.915128-19.915127s8.916003-19.915127 19.915128-19.915128h339.444383c10.999125 0 19.915127 8.916003 19.915128 19.915128s-8.916003 19.915127-19.915128 19.915127z" fill="#20A2DD" p-id="3284"></path></svg>